<svg xmlns="http://www.w3.org/2000/svg" width="36" height="30" viewBox="0 0 36 30" fill="none">
<path fill-rule="evenodd" clip-rule="evenodd" d="M16.7996 0.597579C16.614 0.783046 16.6072 0.823264 16.6246 1.634C16.6345 2.09786 16.6109 2.50909 16.5721 2.5477C16.5333 2.58631 16.1224 2.67318 15.6589 2.7406C13.6267 3.03646 11.9182 3.63254 10.1049 4.67846C8.79564 5.43366 8.08594 5.96501 7.01375 6.99277C5.90531 8.05532 5.17363 8.98188 4.23113 10.5167C3.96048 10.9576 3.44001 11.9893 3.44001 12.0851C3.44001 12.1048 3.35513 12.3065 3.2514 12.5333C2.66788 13.8091 2.14879 16.1645 2.13002 17.6215C2.11707 18.6292 2.15729 18.5859 1.14883 18.6781C0.384977 18.748 0.263937 18.7788 0.136922 18.9356C-0.0627173 19.1821 -0.0434123 19.4507 0.1907 19.6848C0.387045 19.8811 0.396315 19.8824 1.24405 19.8327C1.7145 19.8051 3.13358 19.7318 4.3976 19.6698C5.66162 19.6077 7.29911 19.5228 8.03646 19.4809C10.1539 19.361 10.6898 19.3333 11.7519 19.2897C12.7965 19.2468 14.7168 19.145 16.8463 19.0197C17.5415 18.9787 18.6126 18.9271 19.2264 18.905C19.8401 18.8829 20.6158 18.8494 20.95 18.8307C21.2843 18.812 22.385 18.7602 23.3963 18.7156C24.4075 18.6711 25.7864 18.602 26.4606 18.5621C27.1347 18.5222 28.0827 18.4698 28.5673 18.4456C29.0518 18.4214 29.6551 18.3868 29.9079 18.3687C30.1607 18.3506 30.7985 18.3158 31.3251 18.2913C34.7595 18.1318 35.6852 18.054 35.8426 17.9115C36.0484 17.7252 36.0534 17.2553 35.8515 17.0726C35.7278 16.9606 35.5719 16.9429 34.8564 16.9593C34.3898 16.9701 33.9828 16.9537 33.952 16.9229C33.9212 16.8921 33.8381 16.4809 33.7673 16.0092C33.6237 15.0515 33.5955 14.9161 33.4379 14.4237C33.3771 14.2341 33.2873 13.9238 33.2382 13.7342C33.189 13.5446 33.1177 13.3297 33.0797 13.2565C33.0416 13.1833 33.0105 13.0844 33.0105 13.0369C33.0105 12.8573 32.2817 11.233 31.9005 10.5629C31.3958 9.67595 30.9517 8.99307 30.7228 8.75206C30.6242 8.64818 30.4525 8.44257 30.3413 8.2951C29.8704 7.6706 28.9125 6.71346 28.1298 6.08536C27.5216 5.59721 25.8426 4.49177 25.3497 4.2549C23.1752 3.20997 21.1423 2.67402 18.9658 2.57198C18.279 2.53973 17.9505 2.49369 17.8759 2.41915C17.8116 2.3548 17.7667 2.139 17.7628 1.87555C17.7481 0.883708 17.7262 0.72582 17.5814 0.565787C17.3807 0.344008 17.0392 0.357874 16.7996 0.597579ZM10.7161 6.09263C10.7152 6.14534 10.5686 6.41737 10.3905 6.6973C9.90162 7.46529 8.95598 9.2412 8.95582 9.39166C8.95575 9.42598 8.86956 9.64247 8.76423 9.87275C8.65889 10.103 8.57271 10.3352 8.57271 10.3888C8.57271 10.4423 8.54069 10.5189 8.50154 10.5589C8.39827 10.6644 7.91457 12.5768 7.77591 13.4278C7.65687 14.1579 7.61343 14.5927 7.53874 15.8026C7.4724 16.8762 7.27605 17.0249 5.89765 17.0459C4.82844 17.0622 4.6334 16.9802 4.43996 16.4327C4.29633 16.0263 4.39553 15.4905 4.897 13.9641C5.30831 12.7122 5.39664 12.4916 5.83215 11.6275C6.52476 10.2534 7.1282 9.3339 8.04419 8.2568C9.28378 6.79918 10.7239 5.63268 10.7161 6.09263ZM21.3279 21.45C20.0597 21.4806 16.6825 21.6351 14.9694 21.7408C13.573 21.827 12.9509 21.8617 10.8709 21.9697C9.67011 22.032 8.27394 22.1165 7.76833 22.1576C7.26272 22.1987 5.86655 22.2703 4.66573 22.3168C3.4649 22.3634 2.43484 22.4169 2.37677 22.4358C2.26814 22.4712 2.27603 22.5963 2.43706 23.3868C2.55603 23.9712 2.89479 25.089 3.05842 25.4372C3.144 25.6192 3.26933 25.9131 3.33689 26.0905C3.68201 26.9955 4.42051 28.2759 5.08569 29.1226C5.28847 29.3808 5.46007 29.592 5.46704 29.592C5.47401 29.592 5.6499 29.5101 5.85797 29.41C6.9199 28.8993 7.41931 28.6767 7.75538 28.5642C8.84313 28.2005 10.6613 27.9651 11.9016 28.0275C13.0552 28.0855 19.1029 28.0837 19.9489 28.0251C20.8339 27.9638 21.3544 27.859 21.8641 27.6399C22.0326 27.5674 22.5497 27.3532 23.0132 27.164C23.4767 26.9748 23.8904 26.7926 23.9325 26.7591C23.9746 26.7256 24.4125 26.5233 24.9056 26.3095C25.3985 26.0957 25.8639 25.8867 25.9398 25.8451C26.1046 25.7546 26.7031 25.4831 28.1459 24.8444C28.7358 24.5832 29.3908 24.2883 29.6015 24.1889C29.8121 24.0895 30.1913 23.9164 30.4441 23.8041C30.9494 23.5798 31.5685 23.2934 32.5271 22.8405C32.8722 22.6775 33.176 22.5441 33.2023 22.5441C33.3114 22.5441 34.0727 22.163 34.1216 22.084C34.1508 22.0368 34.1109 21.9266 34.0331 21.8392C33.6878 21.4515 33.0148 21.3731 32.1243 21.617C31.3567 21.8272 30.3156 22.149 30.1377 22.2312C30.0534 22.27 29.7087 22.3903 29.3716 22.4984C28.435 22.7989 26.3777 23.5184 26.0973 23.6436C25.96 23.7049 25.6753 23.8132 25.4647 23.8844C25.254 23.9555 24.7369 24.1337 24.3155 24.2804C23.4751 24.573 20.8901 25.1261 20.019 25.1998C19.3457 25.2568 19.1069 25.2028 18.9464 24.9578C18.6687 24.534 18.8766 23.9483 19.3728 23.7569C19.639 23.6542 20.7345 23.4665 21.0775 23.4648C21.3624 23.4634 23.1116 23.1841 24.1983 22.9664C24.9659 22.8127 25.5385 22.5172 25.6908 22.1963C25.8397 21.8825 25.839 21.8178 25.6839 21.5811L25.5585 21.3897L23.7879 21.4114C22.8141 21.4235 21.7071 21.4408 21.3279 21.45Z" fill="#EF4444"/>
</svg>