<svg xmlns="http://www.w3.org/2000/svg" width="22" height="22" viewBox="0 0 22 22" fill="none">
<path d="M9.16667 15.5835H12.8333M12.8333 15.5835V4.5835H1.83334V15.5835H4.58334M12.8333 15.5835H13.75M18.3333 15.5835H20.1667V12.5218C20.167 12.0402 20.0725 11.5632 19.8885 11.118C19.7045 10.6729 19.4346 10.2684 19.0942 9.92766L17.4167 8.25016H12.8333M9.16667 16.0418C9.16667 17.3075 8.14066 18.3335 6.875 18.3335C5.60935 18.3335 4.58334 17.3075 4.58334 16.0418C4.58334 14.7762 5.60935 13.7502 6.875 13.7502C8.14066 13.7502 9.16667 14.7762 9.16667 16.0418ZM18.3333 16.0418C18.3333 17.3075 17.3073 18.3335 16.0417 18.3335C14.776 18.3335 13.75 17.3075 13.75 16.0418C13.75 14.7762 14.776 13.7502 16.0417 13.7502C17.3073 13.7502 18.3333 14.7762 18.3333 16.0418Z" stroke="#E4E4E7" stroke-linecap="round" stroke-linejoin="round"/>
</svg>